<?xml version="1.0" encoding="UTF-8" standalone="no"?><!DOCTYPE svg PUBLIC "-//W3C//DTD SVG 1.1//EN" "http://www.w3.org/Graphics/SVG/1.1/DTD/svg11.dtd"><svg width="100%" height="100%" viewBox="0 0 3888 3888" version="1.1" xmlns="http://www.w3.org/2000/svg" xmlns:xlink="http://www.w3.org/1999/xlink" xml:space="preserve" xmlns:serif="http://www.serif.com/" style="fill-rule:evenodd;clip-rule:evenodd;"><g id="_2" serif:id="2"><g><g id="We-Cloud-Dance-2" serif:id="We Cloud Dance 2"><path d="M49.876,908.316c-0,-484.68 392.91,-877.59 877.59,-877.59l1023.86,0c1050.14,0 1901.44,851.306 1901.44,1901.44c-0,1050.14 -851.306,1901.44 -1901.44,1901.44c-1050.14,0 -1901.44,-851.306 -1901.44,-1901.44l-0,-1023.86Z" style="fill:#68fe9a;fill-rule:nonzero;"/><g><clipPath id="_clip1"><path d="M49.876,908.316c-0,-484.68 392.91,-877.59 877.59,-877.59l1023.86,0c1050.14,0 1901.44,851.306 1901.44,1901.44c-0,1050.14 -851.306,1901.44 -1901.44,1901.44c-1050.14,0 -1901.44,-851.306 -1901.44,-1901.44l-0,-1023.86Z" clip-rule="nonzero"/></clipPath><g clip-path="url(#_clip1)"><circle cx="3999.03" cy="981.449" r="1901.44" style="fill:#34d574;"/><circle cx="1731.92" cy="4564.94" r="1462.65" style="fill:#43dc80;"/><circle cx="964.032" cy="3065.72" r="950.722" style="fill:none;stroke:#50e98d;stroke-width:73.13px;"/></g></g></g><path d="M1933.42,840.877c421.915,-9.779 799.102,271.784 909.689,679.065c-5.221,-1.97 5.419,1.281 0,0c381.747,251.312 386.377,798.958 24.334,1077.86l-0.591,-0.69l0.689,0.614c-115.625,87.286 -256.775,136.575 -401.646,135.928l-509.619,0l-514.447,2.956c-658.771,5.221 -923.678,-847.724 -377.805,-1216.66c47.006,-173.325 147.258,-329.902 281.556,-449.131l0.591,4.926l-0.591,-4.926c162.685,-143.495 370.97,-224.966 587.84,-229.934Zm35.269,408.444c-122.553,-3.941 -248.062,36.253 -343.424,113.292c-118.78,99.141 -186.317,247.055 -183.436,401.745l0,51.031c-347.758,-6.896 -347.758,518.387 0,511.59l511.59,-0l0.788,0.886l-0.788,-0.886l512.476,-3.054c36.249,-0.001 72.085,-7.725 105.115,-22.659l-0.098,0c91.352,-41.364 150.312,-132.783 150.312,-233.064c-0,-140.352 -115.492,-255.844 -255.844,-255.844c-100.281,-0 -191.7,58.959 -233.065,150.311l-296.826,-296.727c98.606,-128.536 240.88,-216.691 399.873,-247.766c-1.773,-0.985 5.23,6.609 3.85,6.904c-93.014,-102.05 -232.709,-171.326 -370.72,-175.661l0.197,-0.098Z" style="fill:#fff;fill-rule:nonzero;"/></g></g></svg>