<?xml version="1.0" encoding="UTF-8" standalone="no"?><!DOCTYPE svg PUBLIC "-//W3C//DTD SVG 1.1//EN" "http://www.w3.org/Graphics/SVG/1.1/DTD/svg11.dtd"><svg width="100%" height="100%" viewBox="0 0 12000 2875" version="1.1" xmlns="http://www.w3.org/2000/svg" xmlns:xlink="http://www.w3.org/1999/xlink" xml:space="preserve" xmlns:serif="http://www.serif.com/" style="fill-rule:evenodd;clip-rule:evenodd;stroke-linejoin:round;stroke-miterlimit:2;"><rect id="画板1" x="0" y="0" width="12000" height="2874.97" style="fill:none;"/><g id="NATT-ROW"><g><path d="M744.229,596.958c-426.162,425.938 -426.162,1119.48 0.134,1545.58c426.254,426.255 1119.5,426.255 1545.67,0.113l40.017,-40.104l-235.971,-235.925l-40.15,40.058c-295.85,295.825 -777.587,295.825 -1073.7,-0.179c-295.8,-295.938 -295.8,-777.538 -0,-1073.52c295.983,-295.983 777.7,-295.983 1073.7,-0l810.763,810.763l235.97,-235.88l-810.741,-810.9c-426.296,-426.075 -1119.61,-426.075 -1545.69,0Z" style="fill:#1a3353;fill-rule:nonzero;"/><path d="M4119.07,2142.68c426.162,-425.941 426.162,-1119.48 -0.138,-1545.58c-426.25,-426.254 -1119.5,-426.254 -1545.66,-0.112l-40.017,40.104l235.971,235.925l40.15,-40.058c295.846,-295.829 777.583,-295.829 1073.7,0.179c295.804,295.937 295.804,777.537 0,1073.52c-295.979,295.983 -777.696,295.983 -1073.7,-0l-810.762,-810.763l-235.971,235.879l810.741,810.9c426.296,426.071 1119.61,426.071 1545.69,0Z" style="fill:#1a3353;fill-rule:nonzero;"/></g><g><text x="4827.96px" y="1941.9px" style="font-family:'GeogrotesqueStencilC-Md', 'Geogrotesque Stencil C';font-weight:500;font-size:1655.81px;fill:#1a3353;">NA</text><text x="6647.71px" y="1941.9px" style="font-family:'GeogrotesqueStencilC-Md', 'Geogrotesque Stencil C';font-weight:500;font-size:1655.81px;fill:#1a3353;">TT Plan</text></g><g><text x="8158.04px" y="2527.29px" style="font-family:'GeogrotesqueStencilC-Md', 'Geogrotesque Stencil C';font-weight:500;font-size:454.933px;fill:#1a3353;">P</text><text x="8422.79px" y="2527.29px" style="font-family:'GeogrotesqueStencilC-Md', 'Geogrotesque Stencil C';font-weight:500;font-size:454.933px;fill:#1a3353;">rivatized Ver<tspan x="10796.6px 11009.5px " y="2527.29px 2527.29px ">si</tspan>on</text></g></g></svg>